# xmcd
#
# Track frame offsets: 
#        150
#        16642
#        36768
#        52823
#        69623
#        83245
#        100283
#        120015
#        130751
#        152062
#        166199
#        180701
#        196732
#        209573
#        224424
#        249324
#        267058
#        279618
#        298415
#        319232
#
# Disc length: 4503 seconds
#
# Revision: 2
# Processed by: cddbd v1.5.2PL0 Copyright (c) Steve Scherf et al.
# Submitted via: ExactAudioCopyFreeDBPlugin 1.0
#
DISCID=19119514
DTITLE=Bellamy Brothers - Bellamy Brothers 40 Years - CD 2
DYEAR=2015
DGENRE=Country
TTITLE0=Dinosaur Wine
TTITLE1=Old Love Song
TTITLE2=Time Rocks On
TTITLE3=Dyin' Breed
TTITLE4=Livin' in Oblivion
TTITLE5=After The Storm
TTITLE6=Agave Blue
TTITLE7=Hippie Cowboys
TTITLE8=Heaven and Hell
TTITLE9=That's How U Roll When U Rock
TTITLE10=The Right To Be Wrong
TTITLE11=We Don't Call 911
TTITLE12=Love By The Moon
TTITLE13=Together We Have It All
TTITLE14=Barb Wire Fence
TTITLE15=Texas Girls
TTITLE16=Jet Lag Journey
TTITLE17=Boobs
TTITLE18=October Moon
TTITLE19=The Rock
EXTD=
EXTT0=
EXTT1=
EXTT2=
EXTT3=
EXTT4=
EXTT5=
EXTT6=
EXTT7=
EXTT8=
EXTT9=
EXTT10=
EXTT11=
EXTT12=
EXTT13=
EXTT14=
EXTT15=
EXTT16=
EXTT17=
EXTT18=
EXTT19=
PLAYORDER=
